<svg id="visual" viewBox="0 0 900 600" width="900" height="600" xmlns="http://www.w3.org/2000/svg" xmlns:xlink="http://www.w3.org/1999/xlink" version="1.1"><path d="M0 532L21.5 530.8C43 529.7 86 527.3 128.8 528.2C171.7 529 214.3 533 257.2 530.8C300 528.7 343 520.3 385.8 520.2C428.7 520 471.3 528 514.2 532.5C557 537 600 538 642.8 536C685.7 534 728.3 529 771.2 523.5C814 518 857 512 878.5 509L900 506L900 601L878.5 601C857 601 814 601 771.2 601C728.3 601 685.7 601 642.8 601C600 601 557 601 514.2 601C471.3 601 428.7 601 385.8 601C343 601 300 601 257.2 601C214.3 601 171.7 601 128.8 601C86 601 43 601 21.5 601L0 601Z" fill="#dd38ab"></path><path d="M0 532L21.5 530.5C43 529 86 526 128.8 528.2C171.7 530.3 214.3 537.7 257.2 539.2C300 540.7 343 536.3 385.8 535.5C428.7 534.7 471.3 537.3 514.2 538.8C557 540.3 600 540.7 642.8 537.2C685.7 533.7 728.3 526.3 771.2 527.7C814 529 857 539 878.5 544L900 549L900 601L878.5 601C857 601 814 601 771.2 601C728.3 601 685.7 601 642.8 601C600 601 557 601 514.2 601C471.3 601 428.7 601 385.8 601C343 601 300 601 257.2 601C214.3 601 171.7 601 128.8 601C86 601 43 601 21.5 601L0 601Z" fill="#b928ab"></path><path d="M0 560L21.5 560.2C43 560.3 86 560.7 128.8 558C171.7 555.3 214.3 549.7 257.2 545.8C300 542 343 540 385.8 538.8C428.7 537.7 471.3 537.3 514.2 537.3C557 537.3 600 537.7 642.8 540.2C685.7 542.7 728.3 547.3 771.2 548.3C814 549.3 857 546.7 878.5 545.3L900 544L900 601L878.5 601C857 601 814 601 771.2 601C728.3 601 685.7 601 642.8 601C600 601 557 601 514.2 601C471.3 601 428.7 601 385.8 601C343 601 300 601 257.2 601C214.3 601 171.7 601 128.8 601C86 601 43 601 21.5 601L0 601Z" fill="#911faa"></path><path d="M0 562L21.5 563.2C43 564.3 86 566.7 128.8 567.2C171.7 567.7 214.3 566.3 257.2 565.5C300 564.7 343 564.3 385.8 562.8C428.7 561.3 471.3 558.7 514.2 556.7C557 554.7 600 553.3 642.8 554.5C685.7 555.7 728.3 559.3 771.2 563.2C814 567 857 571 878.5 573L900 575L900 601L878.5 601C857 601 814 601 771.2 601C728.3 601 685.7 601 642.8 601C600 601 557 601 514.2 601C471.3 601 428.7 601 385.8 601C343 601 300 601 257.2 601C214.3 601 171.7 601 128.8 601C86 601 43 601 21.5 601L0 601Z" fill="#611da7"></path><path d="M0 587L21.5 587.3C43 587.7 86 588.3 128.8 586C171.7 583.7 214.3 578.3 257.2 577.2C300 576 343 579 385.8 579.5C428.7 580 471.3 578 514.2 577.8C557 577.7 600 579.3 642.8 578.8C685.7 578.3 728.3 575.7 771.2 576.5C814 577.3 857 581.7 878.5 583.8L900 586L900 601L878.5 601C857 601 814 601 771.2 601C728.3 601 685.7 601 642.8 601C600 601 557 601 514.2 601C471.3 601 428.7 601 385.8 601C343 601 300 601 257.2 601C214.3 601 171.7 601 128.8 601C86 601 43 601 21.5 601L0 601Z" fill="#011ea2"></path></svg>