<svg id="visual" viewBox="0 0 900 600" width="900" height="600" xmlns="http://www.w3.org/2000/svg" xmlns:xlink="http://www.w3.org/1999/xlink" version="1.1"><path d="M0 66L21.5 67.2C43 68.3 86 70.7 128.8 69.8C171.7 69 214.3 65 257.2 67.2C300 69.3 343 77.7 385.8 77.8C428.7 78 471.3 70 514.2 65.5C557 61 600 60 642.8 62C685.7 64 728.3 69 771.2 74.5C814 80 857 86 878.5 89L900 92L900 0L878.5 0C857 0 814 0 771.2 0C728.3 0 685.7 0 642.8 0C600 0 557 0 514.2 0C471.3 0 428.7 0 385.8 0C343 0 300 0 257.2 0C214.3 0 171.7 0 128.8 0C86 0 43 0 21.5 0L0 0Z" fill="#dd38ab"></path><path d="M0 66L21.5 67.5C43 69 86 72 128.8 69.8C171.7 67.7 214.3 60.3 257.2 58.8C300 57.3 343 61.7 385.8 62.5C428.7 63.3 471.3 60.7 514.2 59.2C557 57.7 600 57.3 642.8 60.8C685.7 64.3 728.3 71.7 771.2 70.3C814 69 857 59 878.5 54L900 49L900 0L878.5 0C857 0 814 0 771.2 0C728.3 0 685.7 0 642.8 0C600 0 557 0 514.2 0C471.3 0 428.7 0 385.8 0C343 0 300 0 257.2 0C214.3 0 171.7 0 128.8 0C86 0 43 0 21.5 0L0 0Z" fill="#b928ab"></path><path d="M0 38L21.5 37.8C43 37.7 86 37.3 128.8 40C171.7 42.7 214.3 48.3 257.2 52.2C300 56 343 58 385.8 59.2C428.7 60.3 471.3 60.7 514.2 60.7C557 60.7 600 60.3 642.8 57.8C685.7 55.3 728.3 50.7 771.2 49.7C814 48.7 857 51.3 878.5 52.7L900 54L900 0L878.5 0C857 0 814 0 771.2 0C728.3 0 685.7 0 642.8 0C600 0 557 0 514.2 0C471.3 0 428.7 0 385.8 0C343 0 300 0 257.2 0C214.3 0 171.7 0 128.8 0C86 0 43 0 21.5 0L0 0Z" fill="#911faa"></path><path d="M0 36L21.5 34.8C43 33.7 86 31.3 128.8 30.8C171.7 30.3 214.3 31.7 257.2 32.5C300 33.3 343 33.7 385.8 35.2C428.7 36.7 471.3 39.3 514.2 41.3C557 43.3 600 44.7 642.8 43.5C685.7 42.3 728.3 38.7 771.2 34.8C814 31 857 27 878.5 25L900 23L900 0L878.5 0C857 0 814 0 771.2 0C728.3 0 685.7 0 642.8 0C600 0 557 0 514.2 0C471.3 0 428.7 0 385.8 0C343 0 300 0 257.2 0C214.3 0 171.7 0 128.8 0C86 0 43 0 21.5 0L0 0Z" fill="#611da7"></path><path d="M0 11L21.5 10.7C43 10.3 86 9.7 128.8 12C171.7 14.3 214.3 19.7 257.2 20.8C300 22 343 19 385.8 18.5C428.7 18 471.3 20 514.2 20.2C557 20.3 600 18.7 642.8 19.2C685.7 19.7 728.3 22.3 771.2 21.5C814 20.7 857 16.3 878.5 14.2L900 12L900 0L878.5 0C857 0 814 0 771.2 0C728.3 0 685.7 0 642.8 0C600 0 557 0 514.2 0C471.3 0 428.7 0 385.8 0C343 0 300 0 257.2 0C214.3 0 171.7 0 128.8 0C86 0 43 0 21.5 0L0 0Z" fill="#011ea2"></path></svg>